<?xml version="1.0" encoding="UTF-8" standalone="no"?>
<svg
   width="16"
   height="16"
   fill="currentColor"
   class="bi bi-pen"
   viewBox="0 0 16 16"
   version="1.1"
   id="svg4"
   sodipodi:docname="pen.svg"
   inkscape:version="1.2.2 (732a01da63, 2022-12-09)"
   xmlns:inkscape="http://www.inkscape.org/namespaces/inkscape"
   xmlns:sodipodi="http://sodipodi.sourceforge.net/DTD/sodipodi-0.dtd"
   xmlns="http://www.w3.org/2000/svg"
   xmlns:svg="http://www.w3.org/2000/svg">
  <defs
     id="defs8" />
  <sodipodi:namedview
     id="namedview6"
     pagecolor="#ffffff"
     bordercolor="#999999"
     borderopacity="1"
     inkscape:showpageshadow="0"
     inkscape:pageopacity="0"
     inkscape:pagecheckerboard="0"
     inkscape:deskcolor="#d1d1d1"
     showgrid="false"
     inkscape:zoom="52.3125"
     inkscape:cx="8.0095579"
     inkscape:cy="8.0095579"
     inkscape:window-width="1920"
     inkscape:window-height="1017"
     inkscape:window-x="1912"
     inkscape:window-y="-8"
     inkscape:window-maximized="1"
     inkscape:current-layer="svg4" />
  <path
     d="m13.498.795.149-.149a1.207 1.207 0 1 1 1.707 1.708l-.149.148a1.5 1.5 0 0 1-.059 2.059L4.854 14.854a.5.5 0 0 1-.233.131l-4 1a.5.5 0 0 1-.606-.606l1-4a.5.5 0 0 1 .131-.232l9.642-9.642a.5.5 0 0 0-.642.056L6.854 4.854a.5.5 0 1 1-.708-.708L9.44.854A1.5 1.5 0 0 1 11.5.796a1.5 1.5 0 0 1 1.998-.001m-.644.766a.5.5 0 0 0-.707 0L1.95 11.756l-.764 3.057 3.057-.764L14.44 3.854a.5.5 0 0 0 0-.708z"
     id="path2" />
  <path
     style="fill:#808080;stroke-width:0.019146"
     d="M 0.3726361,15.972581 C 0.24121793,15.932606 0.12050221,15.830492 0.05788459,15.706332 -0.02178336,15.548364 -0.0311055,15.595135 0.51553956,13.4102 0.79562324,12.290708 1.0418511,11.335869 1.0627126,11.288336 1.0930903,11.21912 2.066144,10.236238 5.9497009,6.3519881 8.616683,3.6845301 10.794845,1.4985274 10.790061,1.4942041 c -0.0048,-0.00432 -0.03805,-0.0228 -0.07392,-0.041059 C 10.616751,1.4025591 10.451682,1.3941541 10.33001,1.4334841 10.2319,1.4651971 10.144767,1.5488384 8.4970181,3.1929748 7.2317532,4.45546 6.7464847,4.9279442 6.6905615,4.951835 6.5715456,5.0026795 6.4043124,4.9961413 6.2868389,4.9360512 6.1211269,4.851286 6.0316616,4.7170196 6.0167006,4.5306368 5.9983075,4.301497 5.9023398,4.4095017 7.8526314,2.464433 9.6858556,0.63611833 9.6805098,0.64104256 9.9504958,0.53199038 10.418398,0.34299616 10.98192,0.41859812 11.390721,0.72521067 l 0.112346,0.0842627 0.09793,-0.0780103 c 0.132746,-0.10574608 0.409477,-0.23338412 0.592837,-0.2734375 0.201992,-0.0441234 0.537732,-0.030585 0.728509,0.0293765 0.162658,0.0511238 0.348695,0.14661236 0.480481,0.24662022 l 0.09816,0.0744929 0.102553,-0.10451565 c 0.251182,-0.25598658 0.552223,-0.39173938 0.876748,-0.39536383 0.222641,-0.002487 0.343855,0.0253646 0.554361,0.12737441 0.228363,0.11066377 0.424379,0.30655945 0.531143,0.53081704 0.09775,0.20532334 0.126401,0.32896364 0.125908,0.54332804 -7.28e-4,0.3168771 -0.118049,0.5933253 -0.360195,0.848745 l -0.137732,0.1452813 0.07333,0.095579 c 0.100612,0.1311334 0.195061,0.3164314 0.248463,0.4874551 0.03799,0.1216541 0.04477,0.1839041 0.04477,0.4109917 0,0.2271461 -0.0068,0.2893062 -0.04479,0.4109916 -0.06965,0.2229448 -0.179694,0.4151624 -0.345194,0.6029573 -0.083,0.09418 -2.450712,2.4698421 -5.261585,5.2792495 -4.0953853,4.0932493 -5.1278467,5.1155413 -5.1971019,5.1459113 -0.1232093,0.05403 -4.13431014,1.053461 -4.21999888,1.051481 -0.0391136,-9.04e-4 -0.0926767,-0.0082 -0.11902912,-0.01622 z M 2.7501433,14.434224 4.2386378,14.0648 9.3702826,8.9344312 C 12.439113,5.8663643 14.518576,3.7733253 14.543345,3.7275986 c 0.05889,-0.108718 0.05898,-0.3497442 1.91e-4,-0.4587814 -0.02335,-0.043291 -0.41713,-0.4507225 -0.907674,-0.939131 -0.811407,-0.8078664 -0.872991,-0.86479 -0.969452,-0.8960828 -0.12643,-0.041015 -0.287758,-0.03066 -0.395392,0.025379 -0.04636,0.02414 -2.036866,2.0013638 -5.2044528,5.1697383 l -5.1293728,5.1306483 -0.380226,1.518165 c -0.2091243,0.834991 -0.3804765,1.52478 -0.3807826,1.532866 -3.06e-4,0.0081 0.018798,0.0099 0.042454,0.004 0.023656,-0.0059 0.7128333,-0.176968 1.5315053,-0.38015 z"
     id="path931" />
</svg>
