<?xml version="1.0" encoding="UTF-8" standalone="no"?>
<svg
   width="16"
   height="16"
   fill="currentColor"
   class="bi bi-printer"
   viewBox="0 0 16 16"
   version="1.1"
   id="svg2"
   sodipodi:docname="printer.svg"
   inkscape:version="1.3.2 (091e20e, 2023-11-25, custom)"
   xmlns:inkscape="http://www.inkscape.org/namespaces/inkscape"
   xmlns:sodipodi="http://sodipodi.sourceforge.net/DTD/sodipodi-0.dtd"
   xmlns="http://www.w3.org/2000/svg"
   xmlns:svg="http://www.w3.org/2000/svg">
  <defs
     id="defs2" />
  <sodipodi:namedview
     id="namedview2"
     pagecolor="#ffffff"
     bordercolor="#000000"
     borderopacity="0.25"
     inkscape:showpageshadow="2"
     inkscape:pageopacity="0.0"
     inkscape:pagecheckerboard="0"
     inkscape:deskcolor="#d1d1d1"
     inkscape:zoom="55.6875"
     inkscape:cx="7.9910213"
     inkscape:cy="8"
     inkscape:window-width="1920"
     inkscape:window-height="1129"
     inkscape:window-x="-8"
     inkscape:window-y="-8"
     inkscape:window-maximized="1"
     inkscape:current-layer="svg2" />
  <path
     d="M2.5 8a.5.5 0 1 0 0-1 .5.5 0 0 0 0 1"
     id="path1" />
  <path
     d="M5 1a2 2 0 0 0-2 2v2H2a2 2 0 0 0-2 2v3a2 2 0 0 0 2 2h1v1a2 2 0 0 0 2 2h6a2 2 0 0 0 2-2v-1h1a2 2 0 0 0 2-2V7a2 2 0 0 0-2-2h-1V3a2 2 0 0 0-2-2zM4 3a1 1 0 0 1 1-1h6a1 1 0 0 1 1 1v2H4zm1 5a2 2 0 0 0-2 2v1H2a1 1 0 0 1-1-1V7a1 1 0 0 1 1-1h12a1 1 0 0 1 1 1v3a1 1 0 0 1-1 1h-1v-1a2 2 0 0 0-2-2zm7 2v3a1 1 0 0 1-1 1H5a1 1 0 0 1-1-1v-3a1 1 0 0 1 1-1h6a1 1 0 0 1 1 1"
     id="path2" />
  <path
     style="fill:#b3b3b3;stroke-width:0.0179574"
     d="M 4.648109,14.958842 C 3.9481634,14.83183 3.3483189,14.315364 3.117391,13.640893 3.0275381,13.37846 3.0217426,13.322791 3.0130518,12.638669 l -0.00825,-0.649772 -0.658403,-0.007 C 1.6209104,11.974228 1.5640147,11.966945 1.2513285,11.841739 0.60163286,11.581589 0.12586766,10.964525 0.02688704,10.253648 0.01298089,10.153774 0.00867031,9.5900412 0.01274404,8.4040404 L 0.0186037,6.698092 0.06626237,6.5244527 C 0.16585043,6.1616142 0.33793713,5.8572204 0.58313753,5.6101836 0.87139266,5.3197696 1.1974033,5.1402013 1.5982043,5.0510797 1.7370345,5.0202096 1.8477994,5.0138683 2.3838384,5.0061024 l 0.6240179,-0.00904 3.558e-4,-1.061943 c 2.031e-4,-0.6062433 0.00802,-1.115884 0.018227,-1.1876447 0.1087435,-0.764858 0.6217347,-1.3871806 1.3475051,-1.6346926 0.2989932,-0.1019667 0.1604294,-0.098245 3.6328972,-0.097565 3.4581734,6.774e-4 3.3164794,-0.00312 3.6172234,0.097033 0.668054,0.2224824 1.150832,0.7610942 1.326852,1.4803028 0.02489,0.1016892 0.03015,0.2853007 0.03614,1.2617685 l 0.007,1.1427613 0.623049,0.00903 c 0.535088,0.00776 0.645866,0.014104 0.784666,0.044967 0.761143,0.1692468 1.32207,0.7087292 1.531942,1.473373 l 0.04766,0.1736393 0.0059,1.7059484 c 0.0041,1.1860008 -2.37e-4,1.7497339 -0.01414,1.8496079 -0.09189,0.65992 -0.499717,1.231579 -1.086469,1.522909 -0.370757,0.184085 -0.530229,0.209975 -1.293374,0.209975 h -0.598049 l -0.0083,0.650954 c -0.0065,0.509478 -0.01445,0.676818 -0.03672,0.769961 -0.170115,0.711562 -0.652493,1.251013 -1.322857,1.47937 -0.300972,0.102525 -0.15851,0.09873 -3.6432052,0.09697 -2.5469143,-0.0013 -3.2339992,-0.0064 -3.3360708,-0.02495 z m 6.470499,-0.960963 c 0.338594,-0.044 0.61651,-0.232766 0.768489,-0.521982 0.122144,-0.23244 0.118831,-0.17303 0.113349,-2.032807 l -0.0049,-1.6742909 -0.04944,-0.1235002 C 11.813512,9.314163 11.546343,9.0871388 11.203815,9.0145745 c -0.186423,-0.039493 -6.2212072,-0.039493 -6.4076299,0 -0.3429162,0.072647 -0.6012502,0.2920954 -0.7398937,0.6285231 l -0.051802,0.1257015 -0.00494,1.6742909 c -0.00548,1.86051 -0.00886,1.800251 0.1137701,2.033608 0.1470991,0.27993 0.4346191,0.478732 0.7524746,0.52029 0.1561561,0.02042 6.0960329,0.02126 6.2528099,8.91e-4 z M 3.0079623,10.446689 C 3.0080778,9.8247576 3.0251035,9.6414159 3.1055161,9.3961891 3.3610785,8.6168237 4.033929,8.0875186 4.8574635,8.0180008 c 0.2757553,-0.023278 6.0093175,-0.023278 6.2850725,0 0.701323,0.059201 1.294545,0.4475198 1.612182,1.0553216 0.202839,0.3881336 0.237174,0.5868306 0.23732,1.3733666 l 1.06e-4,0.570146 0.480359,-1.36e-4 c 0.530849,-1.51e-4 0.719372,-0.01533 0.876559,-0.07058 0.295087,-0.103714 0.545375,-0.380576 0.626859,-0.693414 0.04108,-0.15773 0.04125,-3.3402122 1.88e-4,-3.5014604 -0.0731,-0.2870213 -0.266763,-0.524552 -0.531714,-0.65215 -0.08319,-0.040063 -0.20248,-0.08114 -0.267066,-0.091964 -0.08302,-0.013913 -1.887279,-0.01809 -6.2491584,-0.014469 l -6.1324355,0.00509 -0.1188699,0.046304 C 1.4989015,6.1133818 1.3944279,6.1803987 1.2749719,6.3018622 1.1565653,6.4222585 1.0667264,6.5830524 1.0238906,6.7512476 0.9828241,6.9124958 0.9829952,10.094978 1.0240789,10.252708 c 0.081233,0.311876 0.3331408,0.590011 0.6287002,0.694158 0.1557093,0.05487 0.2825085,0.06498 0.8477821,0.06761 l 0.5072951,0.0024 z M 12.004224,3.9371493 c -2.95e-4,-1.1809877 -0.0013,-1.1925368 -0.117223,-1.4132291 -0.15188,-0.2890274 -0.429883,-0.4778135 -0.768393,-0.5217995 -0.171032,-0.022224 -6.0661842,-0.022224 -6.2372161,0 C 4.5451714,2.0458092 4.2640056,2.2365544 4.1134201,2.5231194 3.9969751,2.7447145 3.9960709,2.7555827 3.9957761,3.9371493 l -2.654e-4,1.063973 H 8 12.004489 Z"
     id="path3" />
  <path
     style="fill:#b3b3b3;stroke-width:0.0179574"
     d="M 2.4214365,7.9795751 C 2.2644316,7.9521391 2.105484,7.826142 2.0426011,7.6792739 1.970615,7.5111448 2.0311336,7.2665332 2.176338,7.1387192 2.4750588,6.8757746 2.944117,7.0565174 2.9844314,7.4501029 3.0166088,7.7642466 2.7302639,8.0335415 2.4214365,7.9795751 Z"
     id="path4" />
</svg>
