<?xml version="1.0" encoding="UTF-8" standalone="no"?>
<svg
   width="16"
   height="16"
   fill="currentColor"
   class="bi bi-search"
   viewBox="0 0 16 16"
   version="1.1"
   id="svg4"
   sodipodi:docname="search.svg"
   inkscape:version="1.2.2 (732a01da63, 2022-12-09)"
   xmlns:inkscape="http://www.inkscape.org/namespaces/inkscape"
   xmlns:sodipodi="http://sodipodi.sourceforge.net/DTD/sodipodi-0.dtd"
   xmlns="http://www.w3.org/2000/svg"
   xmlns:svg="http://www.w3.org/2000/svg">
  <defs
     id="defs8" />
  <sodipodi:namedview
     id="namedview6"
     pagecolor="#ffffff"
     bordercolor="#999999"
     borderopacity="1"
     inkscape:showpageshadow="0"
     inkscape:pageopacity="0"
     inkscape:pagecheckerboard="0"
     inkscape:deskcolor="#d1d1d1"
     showgrid="false"
     inkscape:zoom="52.3125"
     inkscape:cx="8.0095579"
     inkscape:cy="8.0095579"
     inkscape:window-width="1920"
     inkscape:window-height="1017"
     inkscape:window-x="1912"
     inkscape:window-y="-8"
     inkscape:window-maximized="1"
     inkscape:current-layer="svg4" />
  <path
     d="M11.742 10.344a6.5 6.5 0 1 0-1.397 1.398h-.001q.044.06.098.115l3.85 3.85a1 1 0 0 0 1.415-1.414l-3.85-3.85a1 1 0 0 0-.115-.1zM12 6.5a5.5 5.5 0 1 1-11 0 5.5 5.5 0 0 1 11 0"
     id="path2" />
  <path
     style="fill:#666666;stroke-width:0.019146"
     d="m 14.769107,15.960212 c -0.151834,-0.04083 -0.246529,-0.0877 -0.374842,-0.185539 -0.06308,-0.0481 -1.002576,-0.976347 -2.087765,-2.062775 l -1.97307,-1.975322 -0.12012,0.08508 C 9.5078194,12.32132 8.6153642,12.699416 7.7323775,12.87272 7.2074692,12.975743 6.5339009,13.014237 6.0023895,12.971588 4.1620808,12.823917 2.5015153,11.927431 1.36795,10.469602 0.64109802,9.5348301 0.19520256,8.4327925 0.04387598,7.1971326 0.01169034,6.9343203 0.01211976,6.0852156 0.04457687,5.8112306 0.22103268,4.3216883 0.83104728,3.0295457 1.8524559,1.9817525 2.3759126,1.444774 2.9102496,1.0506225 3.5651135,0.71841734 5.5636768,-0.29543149 7.8937376,-0.21486259 9.831006,0.93507953 c 0.468318,0.27798857 0.912507,0.63324277 1.332732,1.06589367 0.49306,0.5076404 0.84053,1.0014 1.155988,1.6426797 0.419548,0.8528768 0.634127,1.7210834 0.663283,2.6837067 0.04065,1.3420542 -0.347681,2.6761168 -1.106314,3.8006234 l -0.139538,0.206835 1.97508,1.972376 c 1.086295,1.084807 2.017496,2.02829 2.069336,2.096629 0.302248,0.398441 0.267061,0.934164 -0.08459,1.287953 -0.247311,0.248813 -0.610323,0.353833 -0.927874,0.268436 z M 6.8721625,11.994505 c 1.120436,-0.07864 2.1346185,-0.467533 3.0394265,-1.16549 0.23362,-0.180211 0.737215,-0.683806 0.917426,-0.917426 C 11.305112,9.2943924 11.658808,8.5738607 11.84213,7.8477228 12.061477,6.9788867 12.061601,6.0171613 11.842478,5.1535809 11.652761,4.4058969 11.316649,3.7203798 10.829329,3.0872162 10.647032,2.8503622 10.12558,2.3330818 9.8829152,2.1483735 8.54115,1.1270684 6.9040516,0.76537462 5.2700169,1.1292187 4.4943188,1.3019404 3.6871948,1.6912044 3.0489845,2.20039 2.8396242,2.3674248 2.3669913,2.8401246 2.2005102,3.0489845 1.1502716,4.366568 0.76009086,6.0710241 1.1292187,7.7287883 c 0.1731385,0.77757 0.558931,1.5775471 1.0711028,2.2210325 0.1787567,0.2245872 0.6680331,0.7093652 0.8868947,0.8787392 1.1027483,0.853406 2.4267703,1.261269 3.7849463,1.165945 z"
     id="path860" />
</svg>
