<?xml version="1.0" encoding="UTF-8" standalone="no"?>
<svg
   width="16"
   height="16"
   fill="currentColor"
   class="bi bi-sort-down"
   viewBox="0 0 16 16"
   version="1.1"
   id="svg4"
   sodipodi:docname="sort-down.svg"
   inkscape:version="1.2.2 (732a01da63, 2022-12-09)"
   xmlns:inkscape="http://www.inkscape.org/namespaces/inkscape"
   xmlns:sodipodi="http://sodipodi.sourceforge.net/DTD/sodipodi-0.dtd"
   xmlns="http://www.w3.org/2000/svg"
   xmlns:svg="http://www.w3.org/2000/svg">
  <defs
     id="defs8" />
  <sodipodi:namedview
     id="namedview6"
     pagecolor="#ffffff"
     bordercolor="#999999"
     borderopacity="1"
     inkscape:showpageshadow="0"
     inkscape:pageopacity="0"
     inkscape:pagecheckerboard="0"
     inkscape:deskcolor="#d1d1d1"
     showgrid="false"
     inkscape:zoom="32"
     inkscape:cx="12.375"
     inkscape:cy="7.03125"
     inkscape:window-width="1920"
     inkscape:window-height="1017"
     inkscape:window-x="-8"
     inkscape:window-y="-8"
     inkscape:window-maximized="1"
     inkscape:current-layer="svg4" />
  <path
     d="M3.5 2.5a.5.5 0 0 0-1 0v8.793l-1.146-1.147a.5.5 0 0 0-.708.708l2 1.999.007.007a.497.497 0 0 0 .7-.006l2-2a.5.5 0 0 0-.707-.708L3.5 11.293zm3.5 1a.5.5 0 0 1 .5-.5h7a.5.5 0 0 1 0 1h-7a.5.5 0 0 1-.5-.5M7.5 6a.5.5 0 0 0 0 1h5a.5.5 0 0 0 0-1zm0 3a.5.5 0 0 0 0 1h3a.5.5 0 0 0 0-1zm0 3a.5.5 0 0 0 0 1h1a.5.5 0 0 0 0-1z"
     id="path2"
     style="fill:#999999;stroke-width:1.0015748" />
  <path
     style="fill:#999999;stroke-width:1.0015748"
     d="m 2.7876878,12.91976 c -0.06486,-0.032 -0.5924097,-0.534838 -1.1723325,-1.11741 -0.90864555,-0.912795 -1.05810774,-1.079127 -1.08119002,-1.203226 -0.0540224,-0.290445 0.1660207,-0.563282 0.45428754,-0.563282 0.0883316,0 0.20314058,0.02818 0.25513118,0.06261 0.051991,0.03444 0.3568939,0.322401 0.677563,0.63992 l 0.5830346,0.577306 2.132e-4,-4.3961924 c 1.397e-4,-2.880674 0.013705,-4.4447692 0.03935,-4.5371039 0.045077,-0.1622975 0.2126008,-0.3191177 0.3802294,-0.3559352 0.1448588,-0.031816 0.3656684,0.071338 0.4761867,0.2224565 0.078422,0.1072317 0.079054,0.1367367 0.098047,4.5787449 l 0.019116,4.4708181 0.5734767,-0.576578 c 0.3154122,-0.317118 0.619934,-0.601209 0.6767155,-0.631314 0.056781,-0.03011 0.1746309,-0.05474 0.2618877,-0.05474 0.1287099,0 0.1826103,0.02396 0.2856216,0.126973 0.1808218,0.180822 0.2068928,0.360286 0.082798,0.569953 -0.1246823,0.21066 -2.0770252,2.152587 -2.2180306,2.206197 -0.1452025,0.05521 -0.2518902,0.04998 -0.3921051,-0.0192 z"
     id="path929" />
  <path
     style="fill:#999999;stroke-width:0.038292"
     d="M 7.3723456,3.9532695 C 7.2373955,3.9141994 7.0660586,3.7325504 7.0304918,3.5908407 6.9695348,3.3479687 7.1932034,3.0626802 7.4766175,3.0218092 c 0.093356,-0.013463 1.7439321,-0.019308 3.6679465,-0.012988 3.362429,0.011044 3.502364,0.014307 3.605299,0.084073 0.32034,0.2171158 0.26663,0.729789 -0.0893,0.8523797 -0.163071,0.056166 -7.095568,0.063771 -7.2882184,0.008 z"
     id="path931" />
  <path
     style="fill:#999999;stroke-width:1.0015748"
     d="M 2.7062288,12.82006 C 2.4646063,12.617348 0.94208096,11.102384 0.74181218,10.865399 0.58784297,10.683202 0.55436081,10.617144 0.55436081,10.495572 c 0,-0.271074 0.25724188,-0.470455 0.55129849,-0.427297 0.087999,0.01292 0.269602,0.168255 0.7512905,0.642638 l 0.6352394,0.625607 0.027628,-4.4611655 c 0.030098,-4.8599948 0.015772,-4.5852907 0.2477537,-4.7504766 0.1832019,-0.1304512 0.417326,-0.086621 0.5969158,0.1117492 0.074113,0.081863 0.077097,0.1569358 0.1008339,2.5367696 0.013453,1.3488253 0.026356,3.3685388 0.028674,4.488252 0.00232,1.1197133 0.016039,2.0358423 0.030492,2.0358423 0.014453,0 0.3026252,-0.27298 0.6403823,-0.606622 0.5387967,-0.532233 0.6317764,-0.60866 0.7582188,-0.623235 0.1929982,-0.02225 0.3539915,0.05149 0.4475817,0.204995 0.09367,0.153637 0.097371,0.263416 0.014315,0.42461 -0.069802,0.13547 -1.468322,1.567554 -1.9348093,1.981243 -0.2603975,0.230925 -0.3149856,0.262976 -0.4478931,0.262976 -0.11416,0 -0.1869129,-0.02983 -0.2960532,-0.121398 z"
     id="path1002" />
  <path
     style="fill:#999999;stroke-width:0.038292"
     d="M 7.2410182,6.8900321 C 7.0565706,6.7661255 6.9816623,6.542014 7.0578162,6.3419264 7.0900358,6.2572723 7.1684286,6.1579679 7.2423759,6.1081348 l 0.1285494,-0.086629 2.6227811,1.43e-4 c 2.5338766,1.38e-4 2.6269296,0.00267 2.7451786,0.074773 0.313143,0.1909347 0.313143,0.6150283 0,0.805963 -0.118249,0.0721 -0.211302,0.074635 -2.7451786,0.074773 l -2.6227811,1.429e-4 z"
     id="path1004" />
  <path
     style="fill:#999999;stroke-width:0.038292"
     d="M 7.3723456,9.955659 C 7.2373955,9.9165889 7.0660586,9.7349399 7.0304918,9.5932302 6.9695849,9.3505578 7.1930495,9.0653424 7.4766175,9.0238251 c 0.093356,-0.013668 0.8437723,-0.019513 1.6675913,-0.012988 1.4433092,0.011431 1.5017812,0.014738 1.6057352,0.090794 0.151088,0.1105428 0.254222,0.3313528 0.222411,0.4761867 -0.03682,0.1676286 -0.193638,0.3351526 -0.355935,0.3802294 -0.176675,0.04907 -3.0737023,0.046937 -3.2440744,-0.00239 z"
     id="path1006" />
  <path
     style="fill:#999999;stroke-width:0.038292"
     d="m 7.2410182,12.892422 c -0.1844476,-0.123907 -0.2593559,-0.348019 -0.183202,-0.548106 0.032766,-0.08609 0.1108104,-0.184092 0.1880574,-0.236149 0.1276033,-0.08599 0.1543572,-0.08859 0.7949788,-0.07707 l 0.6629318,0.01192 0.1307841,0.142807 c 0.2252485,0.245957 0.1622313,0.581869 -0.1383154,0.737288 -0.083148,0.043 -0.2553949,0.05658 -0.7173743,0.05658 -0.5696135,0 -0.6161456,-0.0055 -0.7378604,-0.08727 z"
     id="path1008" />
  <path
     style="fill:#999999;stroke-width:0.0039124"
     d="M 2.5036445,3.6953125 C 2.5040786,2.511792 2.5045451,2.4279158 2.5108367,2.4023771 2.5498478,2.2440238 2.6396831,2.1263195 2.7739248,2.057673 c 0.1442551,-0.073767 0.3078953,-0.073767 0.4521504,0 0.1347451,0.068904 0.2236584,0.1854547 0.2629394,0.3446708 0.00631,0.025567 0.00682,0.1095308 0.00794,1.2919921 8.06e-4,0.8524857 -9.45e-5,1.2646485 -0.00276,1.2646485 -0.00262,0 -0.00397,-0.067581 -0.00399,-0.2001953 C 3.4901677,4.4811507 3.483356,3.598725 3.4785436,3.2480469 3.4691507,2.56359 3.4572479,2.3572606 3.4228309,2.2822997 3.4007909,2.2342961 3.3327929,2.1645494 3.2617143,2.1170398 3.1763121,2.0599562 3.0898656,2.0275012 3.0019193,2.0195041 2.8595311,2.0065563 2.6607303,2.1367527 2.5769254,2.2978363 c -0.026215,0.050389 -0.035172,0.078212 -0.039502,0.1227004 -0.013488,0.1385983 -0.021962,0.7059431 -0.031236,2.091182 -0.00223,0.3326549 -0.00289,0.1208128 -0.00254,-0.8164062 z"
     id="path1010" />
  <path
     style="fill:#999999;stroke-width:0.0039124"
     d="M 2.5090153,4.6787109 C 2.5086027,4.5245605 2.50863,4.394043 2.5090761,4.3886719 c 4.461e-4,-0.00537 0.00165,-0.1152344 0.00268,-0.2441407 0.00881,-1.1048291 0.016627,-1.5955508 0.027132,-1.7031249 0.00105,-0.010742 0.00268,-0.02832 0.00363,-0.039063 9.472e-4,-0.010742 0.00376,-0.024805 0.00624,-0.03125 0.00249,-0.00645 0.00433,-0.012191 0.00409,-0.012768 -0.0012,-0.00294 0.031762,-0.068674 0.044134,-0.088015 0.00783,-0.012245 0.01319,-0.022264 0.011905,-0.022264 -0.00129,0 0.00181,-0.00346 0.00688,-0.00768 0.00507,-0.00423 0.00774,-0.00774 0.00593,-0.00781 -0.00405,-1.598e-4 0.1057007,-0.1095875 0.1165741,-0.1162325 0.032971,-0.02015 0.06681,-0.042393 0.068796,-0.045223 0.00131,-0.00187 0.00364,-0.00299 0.00516,-0.00249 0.00386,0.00128 0.050397,-0.020858 0.053912,-0.025642 0.00158,-0.00215 0.0029,-0.00269 0.00293,-0.00121 5.04e-5,0.00227 0.020263,-0.00306 0.043029,-0.011352 0.021305,-0.00776 0.097591,-0.00878 0.1328125,-0.00178 0.013965,0.00277 0.028027,0.00555 0.03125,0.00618 0.00322,6.233e-4 0.0085,0.0021 0.011719,0.00328 0.00322,0.00118 0.017285,0.00614 0.03125,0.011024 0.03681,0.012876 0.085014,0.035465 0.1105833,0.051822 0.012226,0.00782 0.022256,0.012923 0.022289,0.011339 3.13e-5,-0.00158 0.00135,-0.00109 0.00293,0.00111 0.00365,0.00508 0.055604,0.045535 0.055604,0.043299 0,-9.186e-4 0.014268,0.012675 0.031706,0.030207 0.088514,0.088994 0.098942,0.1186888 0.1127046,0.3209401 0.011892,0.174764 0.018846,0.5062941 0.025276,1.2050781 0.00106,0.1149414 0.00303,0.3285156 0.00437,0.4746094 0.00135,0.1460938 0.00268,0.2744141 0.00296,0.2851562 2.805e-4,0.010742 1.164e-4,0.1245606 -3.641e-4,0.2529297 -8.6e-4,0.229752 -9.946e-4,0.2333985 -0.00861,0.2333985 -0.00489,0 -0.00839,-0.00323 -0.00952,-0.00879 -9.738e-4,-0.00485 -0.0028,-0.1529442 -0.00405,-0.3291161 C 3.46376,4.4449219 3.4610279,4.153125 3.458938,3.9726563 3.4426703,2.5678349 3.4337559,2.3527557 3.3882599,2.2673965 3.3723775,2.2375982 3.3023434,2.1692485 3.2538708,2.1362398 3.1280765,2.0505769 2.9948732,2.027395 2.8710938,2.0696237 c -0.039817,0.013584 -0.063712,0.026445 -0.1257199,0.067667 -0.082373,0.05476 -0.105628,0.084331 -0.1280264,0.1628 -0.05193,0.1819268 -0.071035,0.648455 -0.082089,2.0045971 -0.00117,0.1439453 -0.0032,0.3500488 -0.00451,0.4580078 l -0.00238,0.1962891 h -0.0093 -0.0093 z"
     id="path1012" />
  <path
     style="fill:#999999;stroke-width:0.0039124"
     d="M 3.488913,4.2548828 C 3.4830458,3.0597617 3.4716157,2.5478092 3.4469611,2.3758658 3.4342141,2.2869674 3.4185585,2.2553333 3.3565634,2.1932066 3.2219758,2.0583334 3.0280452,1.9889684 2.8984375,2.0293444 2.7572999,2.0733122 2.6296755,2.1833054 2.5661958,2.3156873 2.5437331,2.3625315 2.5382122,2.385568 2.5334246,2.45243 c -0.00879,0.1227182 -0.017554,0.597634 -0.02334,1.2643669 -0.00253,0.2913338 -0.00298,0.2329358 -0.00331,-0.4238281 -2.075e-4,-0.4189454 9.584e-4,-0.7916016 0.00259,-0.828125 0.00278,-0.062189 0.00388,-0.069096 0.017319,-0.1087509 0.032849,-0.096927 0.084172,-0.1745872 0.1540677,-0.2331268 0.056775,-0.047551 0.1279996,-0.084172 0.2029593,-0.1043553 0.034868,-0.00939 0.044742,-0.010294 0.1143359,-0.01049 0.06671,-1.876e-4 0.080512,8.85e-4 0.1111123,0.00864 0.075252,0.019059 0.1492838,0.056062 0.2075318,0.1037284 0.071833,0.058784 0.1320777,0.1517922 0.15995,0.2469367 0.00626,0.021356 0.012589,0.03936 0.014073,0.04001 0.00273,0.0012 0.00503,2.3796787 0.00229,2.3796787 -8.15e-4,0 -0.00266,-0.239502 -0.00409,-0.5322266 z"
     id="path1014" />
  <path
     style="fill:#999999;stroke-width:0.0039124"
     d="M 3.4889309,4.2587891 C 3.4841923,3.2938502 3.4740684,2.6986029 3.4588847,2.4921875 3.4486625,2.3532224 3.4366434,2.2971201 3.4079329,2.2543589 3.3866846,2.2227117 3.3333259,2.1684458 3.2929688,2.1374399 3.1758084,2.0474273 3.0276008,2.0014244 2.9250601,2.0232428 2.8402248,2.041294 2.7553947,2.0895689 2.6792889,2.1631055 2.6288042,2.2118861 2.5948275,2.2575772 2.5681965,2.3125 c -0.024105,0.049714 -0.029979,0.073491 -0.034789,0.1408209 -0.00878,0.1229391 -0.017472,0.5939376 -0.023312,1.263476 -0.00255,0.2920536 -0.003,0.2345587 -0.00332,-0.4238281 -2.064e-4,-0.4189454 9.603e-4,-0.7916016 0.00259,-0.828125 0.00278,-0.062189 0.00388,-0.069096 0.017319,-0.1087509 0.058846,-0.1736388 0.1824513,-0.2904773 0.357027,-0.3374821 0.034868,-0.00939 0.044742,-0.010294 0.1143359,-0.01049 0.06671,-1.876e-4 0.080512,8.85e-4 0.1111123,0.00864 0.1777204,0.045011 0.306912,0.1654824 0.3634813,0.3389458 0.00767,0.023505 0.015479,0.045533 0.017364,0.048951 0.00323,0.00586 0.00622,2.3824562 0.003,2.3824562 -8.127e-4,0 -0.00265,-0.2377442 -0.00407,-0.5283203 z"
     id="path1016" />
  <path
     style="fill:#999999;stroke-width:0.0039124"
     d="M 2.51103,4.5126953 C 2.51736,3.3960005 2.529409,2.5717886 2.541377,2.4375 2.546797,2.376651 2.550867,2.363568 2.584863,2.2976717 2.613098,2.2429387 2.613659,2.2422017 2.671875,2.1833124 2.71712,2.1375434 2.739368,2.1183234 2.769531,2.0989434 c 0.072891,-0.046832 0.1291252,-0.068254 0.1894531,-0.072171 0.076181,-0.00495 0.1431896,0.011839 0.2368411,0.059324 0.064344,0.032625 0.1049682,0.062905 0.1577555,0.1175839 0.041717,0.043211 0.058804,0.067748 0.070153,0.1007335 0.031338,0.091086 0.042012,0.3191226 0.050843,1.0862107 0.014941,1.2978209 0.015252,1.5644531 0.00183,1.5644531 -0.00573,0 -0.00842,-0.1263455 -0.011609,-0.5449219 C 3.4622996,4.0827044 3.4566225,3.6029675 3.4511141,3.2539063 3.4398528,2.5403016 3.4282305,2.3467311 3.3921834,2.2724066 3.3698342,2.2263254 3.2795654,2.1448954 3.2069561,2.105316 3.1309265,2.0638722 3.060649,2.0468314 2.9785156,2.0499239 c -0.087808,0.00331 -0.1372715,0.021283 -0.2304687,0.083762 -0.078065,0.052334 -0.1066172,0.085315 -0.1263299,0.1459246 -0.057688,0.1773707 -0.075739,0.599647 -0.088484,2.069999 -0.00223,0.2567383 -0.00509,0.4988769 -0.00637,0.5380859 -0.00223,0.068549 -0.00263,0.071289 -0.010342,0.071289 h -0.00802 z"
     id="path1018" />
  <path
     style="fill:#999999;stroke-width:0.0039124"
     d="m 2.5097915,4.7080078 c 1.42e-5,-0.1380371 0.00169,-0.4118164 0.00372,-0.6083984 0.00203,-0.1965821 0.00471,-0.4664063 0.00596,-0.5996094 0.00533,-0.569729 0.013474,-0.9666118 0.021813,-1.0625 0.00524,-0.060265 0.00924,-0.073122 0.043546,-0.139915 0.028383,-0.055264 0.028593,-0.05554 0.087045,-0.1145301 0.045141,-0.045556 0.067563,-0.064887 0.097656,-0.084197 0.072834,-0.046733 0.1291796,-0.068173 0.1894531,-0.072086 0.076181,-0.00495 0.1431896,0.011839 0.2368411,0.059324 0.064344,0.032625 0.1049682,0.062905 0.1577555,0.1175839 0.041717,0.043211 0.058804,0.067748 0.070153,0.1007335 0.031284,0.090927 0.042044,0.3199912 0.05084,1.0823045 0.014964,1.2968468 0.015281,1.5683593 0.00183,1.5683593 -0.00571,0 -0.0084,-0.1254181 -0.011632,-0.5429687 C 3.4606214,3.8751666 3.4503313,3.1274045 3.4433283,2.8535156 3.4344749,2.5072495 3.4228596,2.3559581 3.400173,2.291411 3.389956,2.2623415 3.3769672,2.244515 3.3369918,2.2046978 3.2394664,2.1075583 3.1301098,2.0549728 3.0150706,2.0498981 c -0.1026872,-0.00453 -0.1660565,0.015645 -0.27093,0.086254 -0.052039,0.035037 -0.092827,0.075149 -0.1069068,0.1051359 -0.072994,0.15546 -0.092394,0.5790288 -0.1060434,2.3153526 -0.00112,0.1428711 -0.00308,0.2918457 -0.00434,0.3310547 -0.00215,0.066511 -0.0028,0.071289 -0.00969,0.071289 -0.00717,0 -0.00739,-0.00739 -0.00736,-0.2509766 z"
     id="path1020" />
  <path
     style="fill:#999999;stroke-width:0.0039124"
     d="m 2.5097944,4.7060547 c 1.59e-5,-0.1391113 0.00169,-0.4181641 0.00371,-0.6201172 0.00203,-0.2019531 0.00471,-0.4717773 0.00597,-0.5996094 0.00728,-0.7408347 0.01577,-1.0566482 0.029893,-1.1113281 0.00222,-0.00859 0.017508,-0.041992 0.033974,-0.074219 L 2.6132804,2.242187 2.6718744,2.183054 C 2.7334354,2.120926 2.7761262,2.089134 2.8359369,2.060873 2.9232229,2.01963 3.0090544,2.014835 3.103515,2.045924 c 0.054119,0.017812 0.1405653,0.062705 0.179701,0.093321 0.037918,0.029664 0.091611,0.082927 0.1120175,0.1111198 0.065559,0.090575 0.070427,0.1916144 0.086829,1.8023684 0.00407,0.3993853 0.00486,0.7827354 0.00176,0.8476878 -0.00187,0.039245 -0.00396,0.054656 -0.00742,0.054656 -0.00584,0 -0.00854,-0.1231909 -0.011651,-0.53125 C 3.4617433,4.0276542 3.4542457,3.4124948 3.449097,3.1386719 3.4363323,2.4597922 3.425554,2.3188643 3.3815009,2.2548399 3.3619442,2.2264171 3.2864375,2.156873 3.2456612,2.1297272 3.1565277,2.0703886 3.0727189,2.0457252 2.9746094,2.0499617 2.8934467,2.0534665 2.8410932,2.0725679 2.7525543,2.1309799 2.658295,2.1931657 2.6298573,2.232984 2.6075716,2.3339844 2.56825,2.5121918 2.5489374,2.9203598 2.539186,3.7792969 c -0.00116,0.1020508 -0.00297,0.2602539 -0.00402,0.3515625 -0.00105,0.091309 -0.00283,0.2846679 -0.00395,0.4296875 -0.00112,0.1450195 -0.00307,0.2939941 -0.00435,0.3310547 -0.00216,0.062686 -0.00283,0.067383 -0.00971,0.067383 -0.00718,0 -0.00739,-0.00738 -0.00736,-0.2529297 z"
     id="path1022" />
</svg>
