<?xml version="1.0" encoding="UTF-8" standalone="no"?>
<svg
   width="16"
   height="16"
   fill="currentColor"
   class="bi bi-sort-up"
   viewBox="0 0 16 16"
   version="1.1"
   id="svg4"
   sodipodi:docname="sort-up.svg"
   inkscape:version="1.2.2 (732a01da63, 2022-12-09)"
   xmlns:inkscape="http://www.inkscape.org/namespaces/inkscape"
   xmlns:sodipodi="http://sodipodi.sourceforge.net/DTD/sodipodi-0.dtd"
   xmlns="http://www.w3.org/2000/svg"
   xmlns:svg="http://www.w3.org/2000/svg">
  <defs
     id="defs8" />
  <sodipodi:namedview
     id="namedview6"
     pagecolor="#ffffff"
     bordercolor="#999999"
     borderopacity="1"
     inkscape:showpageshadow="0"
     inkscape:pageopacity="0"
     inkscape:pagecheckerboard="0"
     inkscape:deskcolor="#d1d1d1"
     showgrid="false"
     inkscape:zoom="32"
     inkscape:cx="-2.84375"
     inkscape:cy="15.96875"
     inkscape:window-width="1920"
     inkscape:window-height="1017"
     inkscape:window-x="1912"
     inkscape:window-y="-8"
     inkscape:window-maximized="1"
     inkscape:current-layer="svg4" />
  <path
     d="M3.5 12.5a.5.5 0 0 1-1 0V3.707L1.354 4.854a.5.5 0 1 1-.708-.708l2-1.999.007-.007a.5.5 0 0 1 .7.006l2 2a.5.5 0 1 1-.707.708L3.5 3.707zm3.5-9a.5.5 0 0 1 .5-.5h7a.5.5 0 0 1 0 1h-7a.5.5 0 0 1-.5-.5M7.5 6a.5.5 0 0 0 0 1h5a.5.5 0 0 0 0-1zm0 3a.5.5 0 0 0 0 1h3a.5.5 0 0 0 0-1zm0 3a.5.5 0 0 0 0 1h1a.5.5 0 0 0 0-1z"
     id="path2" />
  <path
     style="fill:#808080;stroke-width:0.019146"
     d="M 2.8100358,12.944169 C 2.7006645,12.893013 2.6073738,12.804452 2.5576365,12.704565 2.5249325,12.638887 2.5230643,12.422851 2.5183989,8.167264 2.5157045,5.7096774 2.5070503,3.6989247 2.4991673,3.6989247 c -0.00788,0 -0.2809475,0.2670591 -0.6068098,0.5934647 C 1.5664952,4.6187949 1.273797,4.9022096 1.2419172,4.9221997 1.024552,5.0584981 0.70946556,4.9714942 0.57997223,4.7394191 0.50722952,4.6090512 0.49402464,4.4977501 0.53454794,4.3565471 0.56674093,4.244371 0.57299465,4.2376466 1.631133,3.1774517 2.4406092,2.3664021 2.7179731,2.0998719 2.7898942,2.0639511 c 0.1302893,-0.065073 0.2924047,-0.065049 0.4226011,6.1e-5 0.1282185,0.064121 2.1622842,2.0984126 2.2272581,2.2275052 0.057422,0.1140877 0.059878,0.2827195 0.00585,0.4016482 -0.081225,0.1787959 -0.255128,0.2927342 -0.4467976,0.2927342 -0.1910475,0 -0.225605,-0.026837 -0.8792172,-0.6827859 -0.3311206,-0.332304 -0.60854,-0.6041891 -0.616488,-0.6041891 -0.00795,0 -0.014535,2.0021506 -0.014637,4.4492234 L 3.488272,12.597372 3.44301,12.692951 c -0.1193675,0.252067 -0.3962332,0.36195 -0.6329786,0.251218 z"
     id="path860" />
  <path
     style="fill:#808080;stroke-width:0.019146"
     d="M 7.30227,3.9406863 C 7.1764713,3.8819808 7.0730905,3.7650653 7.0357264,3.6392466 6.9988882,3.5151989 6.9987063,3.4818292 7.0342169,3.3622523 7.0683377,3.2473551 7.1728319,3.1202069 7.2804291,3.0626621 l 0.079189,-0.042351 h 3.6430759 3.643076 l 0.09342,0.057757 c 0.351504,0.2173182 0.324518,0.6989065 -0.04863,0.8678166 -0.08556,0.03873 -0.105359,0.03894 -3.689367,0.039172 l -3.6033451,2.33e-4 -0.09558,-0.044603 z"
     id="path862" />
  <path
     style="fill:#808080;stroke-width:0.019146"
     d="M 7.30227,6.9419904 C 7.1764118,6.8831131 7.0730738,6.7662036 7.0357264,6.6404413 6.9988882,6.5163936 6.9987063,6.483024 7.0342169,6.363447 7.0711901,6.2389446 7.1806206,6.1134743 7.301207,6.0573228 L 7.39785,6.0123208 h 2.599761 2.599761 l 0.09558,0.045262 c 0.252067,0.1193674 0.36195,0.3962332 0.251218,0.6329785 -0.05116,0.1093714 -0.139717,0.2026621 -0.239604,0.2523994 -0.0652,0.032468 -0.211668,0.034595 -2.687839,0.039041 l -2.618876,0.0047 z"
     id="path864" />
  <path
     style="fill:#808080;stroke-width:0.019146"
     d="M 7.3690519,9.9701918 C 7.2126648,9.922621 7.0798771,9.7903077 7.0342169,9.636553 6.9987063,9.516976 6.9988882,9.4836064 7.0357264,9.3595587 7.0730905,9.23374 7.1764713,9.1168245 7.30227,9.058119 l 0.09558,-0.044603 1.5866188,-8.01e-5 c 1.0345922,-5.22e-5 1.6113922,0.0068 1.6578212,0.019694 0.10896,0.030261 0.226736,0.1311702 0.286404,0.2453881 0.136329,0.2609628 0.0077,0.5859815 -0.269141,0.6803274 -0.07433,0.025326 -0.295469,0.028989 -1.6641525,0.027564 -0.8681391,-9.036e-4 -1.5999957,-0.0082 -1.6263486,-0.016218 z"
     id="path866" />
  <path
     style="fill:#808080;stroke-width:0.019146"
     d="M 7.3452419,12.962479 C 7.1796624,12.902223 7.0584458,12.761225 7.0219441,12.586422 6.9782976,12.377402 7.0963604,12.155404 7.30227,12.059314 7.396043,12.015553 7.4092298,12.01471 8,12.01471 c 0.5907702,0 0.603957,8.43e-4 0.69773,0.0446 0.1257987,0.0587 0.2291794,0.175621 0.2665435,0.301439 0.036838,0.124048 0.03702,0.157418 0.00151,0.276995 -0.034121,0.114897 -0.138615,0.242045 -0.2462122,0.29959 -0.076453,0.04089 -0.1003228,0.04251 -0.6908977,0.0468 -0.4780876,0.0035 -0.6273756,-0.0013 -0.6834319,-0.02166 z"
     id="path868" />
  <path
     style="fill:#808080;stroke-width:0.019146"
     d="M 7.3014888,12.924887 C 7.1454561,12.852228 7.0485411,12.713934 7.0303865,12.538032 7.0108981,12.349208 7.1146281,12.171485 7.2987945,12.07816 L 7.39434,12.029744 H 8 8.60566 l 0.096114,0.0487 c 0.2406637,0.121954 0.3377741,0.391265 0.2236597,0.620262 -0.057521,0.115429 -0.1768809,0.225228 -0.2742438,0.252275 -0.038288,0.01064 -0.3278401,0.0189 -0.6607474,0.01885 -0.5816265,-7.9e-5 -0.5943758,-9.1e-4 -0.6889533,-0.04495 z"
     id="path870" />
  <path
     style="fill:#808080;stroke-width:0.019146"
     d="M 7.3014888,12.924887 C 7.1454561,12.852228 7.0485411,12.713934 7.0303865,12.538032 7.0108981,12.349208 7.1146281,12.171485 7.2987945,12.07816 L 7.39434,12.029744 H 8 8.60566 l 0.093825,0.04786 c 0.2456737,0.125322 0.3416022,0.389018 0.2259486,0.621104 -0.057521,0.115429 -0.1768809,0.225228 -0.2742438,0.252275 -0.038288,0.01064 -0.3278401,0.0189 -0.6607474,0.01885 -0.5816265,-7.9e-5 -0.5943758,-9.1e-4 -0.6889533,-0.04495 z"
     id="path872" />
  <path
     style="fill:#808080;stroke-width:0.019146"
     d="M 7.3014888,12.924887 C 7.1454561,12.852228 7.0485411,12.713934 7.0303865,12.538032 7.0108981,12.349208 7.1146281,12.171485 7.2987945,12.07816 l 0.095546,-0.04842 h 0.6088292 c 0.5886802,0 0.6115131,0.0014 0.6899268,0.0418 0.2502883,0.129003 0.3484883,0.394083 0.2323373,0.627167 -0.057521,0.115429 -0.1768809,0.225228 -0.2742438,0.252275 -0.038288,0.01064 -0.3278401,0.0189 -0.6607474,0.01885 -0.5816265,-7.9e-5 -0.5943758,-9.1e-4 -0.6889533,-0.04495 z"
     id="path874" />
  <path
     style="fill:#808080;stroke-width:1.0015748"
     d="M 7.311828,12.930353 C 6.9387552,12.761476 6.9311538,12.264458 7.2987945,12.07816 l 0.095546,-0.04842 h 0.6088292 c 0.5886802,0 0.6115131,0.0014 0.6899268,0.0418 0.1749447,0.09017 0.281283,0.253013 0.2816276,0.431275 3.537e-4,0.18312 -0.1553692,0.401478 -0.3186514,0.446819 -0.044388,0.01233 -0.305488,0.02016 -0.6656301,0.01997 -0.5549053,-2.93e-4 -0.5980634,-0.0028 -0.6786141,-0.03925 z"
     id="path876" />
  <path
     style="fill:#808080;stroke-width:0.0039124"
     d="m 2.9511719,12.995857 c -0.00537,-9.19e-4 -0.02207,-0.0036 -0.037109,-0.006 -0.066786,-0.01065 -0.15118,-0.04681 -0.2085715,-0.08936 -0.098344,-0.07292 -0.1622873,-0.172456 -0.1945212,-0.302806 -0.00635,-0.02569 -0.00683,-0.135399 -0.00793,-1.815429 L 2.501878,8.9941406 h 0.00785 c 0.00782,0 0.00785,0.00181 0.00795,0.5205078 1.713e-4,0.8559286 0.00726,2.5602186 0.011568,2.7822266 0.00581,0.299277 0.011106,0.376152 0.028385,0.412092 0.016589,0.03451 0.055887,0.08823 0.088697,0.121249 0.1523169,0.153307 0.3549057,0.198981 0.5363083,0.120913 0.1218227,-0.05243 0.2041413,-0.136525 0.2726007,-0.278487 0.014708,-0.0305 0.02684,-0.05359 0.026961,-0.0513 5.329e-4,0.0101 -0.024123,0.07449 -0.041156,0.107463 -0.068716,0.133047 -0.1945332,0.227655 -0.3453441,0.259682 -0.028066,0.006 -0.1241427,0.01086 -0.1445312,0.0074 z"
     id="path878" />
  <path
     style="fill:#808080;stroke-width:0.0039124"
     d="m 2.5354714,12.669328 c -0.00575,-0.01553 -0.01428,-0.04064 -0.018946,-0.05581 l -0.00848,-0.02758 -0.00207,-1.701172 -0.00207,-1.7011722 -0.00196,1.6601562 -0.00196,1.660156 -9.697e-4,-1.754883 C 2.498188,9.2511708 2.498843,8.9941406 2.5034857,8.9941406 c 0.00299,0 0.00669,0.00308 0.00823,0.00684 0.00153,0.00376 0.00422,0.5719726 0.00597,1.2626954 0.00503,1.982493 0.00869,2.302156 0.027544,2.407632 0.00225,0.01258 0.00333,0.02363 0.00239,0.02456 -9.308e-4,9.31e-4 -0.0064,-0.01101 -0.012155,-0.02653 z"
     id="path880" />
  <path
     style="fill:#808080;stroke-width:0.0039124"
     d="m 2.9667969,12.984098 c -0.00537,-9.35e-4 -0.022949,-0.0036 -0.039063,-0.006 -0.1221,-0.01805 -0.2650159,-0.113217 -0.3390125,-0.225737 -0.030939,-0.04705 -0.038206,-0.06709 -0.043387,-0.119668 -0.01368,-0.138812 -0.018716,-0.673395 -0.022343,-2.371918 l -0.0027,-1.2666014 h 0.4830204 0.4830204 l -3.51e-5,1.8017574 -3.52e-5,1.801758 -0.033329,0.06817 c -0.042689,0.08731 -0.068342,0.125558 -0.116881,0.174267 -0.072583,0.07284 -0.1568473,0.118919 -0.2496291,0.136519 -0.032454,0.0062 -0.1022032,0.01052 -0.119621,0.0075 z"
     id="path882" />
  <path
     style="fill:#808080;stroke-width:0.0039124"
     d="m 2.9628906,12.98388 c -0.00752,-9.52e-4 -0.028283,-0.0044 -0.046141,-0.0076 C 2.793849,12.95397 2.6625328,12.863866 2.587549,12.7504 2.557851,12.70546 2.550481,12.68491 2.545333,12.632685 2.531602,12.493402 2.526617,11.965488 2.52299,10.266627 L 2.52027,8.9941656 h 0.4830274 0.4830274 l -3.51e-5,1.8017574 -3.52e-5,1.801758 -0.033329,0.06817 c -0.042689,0.08731 -0.068342,0.125558 -0.116881,0.174267 -0.072583,0.07284 -0.1568473,0.118919 -0.2496291,0.136519 -0.033122,0.0063 -0.1001527,0.01023 -0.1235272,0.0073 z"
     id="path884" />
  <path
     style="fill:#808080;stroke-width:0.0039124"
     d="M 2.9609375,12.983863 C 2.8172227,12.968379 2.6732526,12.87863 2.5879501,12.751348 c -0.028969,-0.04322 -0.037238,-0.06589 -0.042537,-0.116582 -0.013771,-0.131737 -0.018856,-0.666734 -0.022455,-2.362305 l -0.00271,-1.2783204 h 0.4830416 0.4830417 v 1.8027024 1.802702 l -0.038941,0.07718 c -0.044104,0.08741 -0.072783,0.128529 -0.1220429,0.174969 -0.068745,0.06481 -0.1522673,0.108475 -0.2389267,0.124914 -0.033248,0.0063 -0.098991,0.01011 -0.1254804,0.0073 z"
     id="path886" />
  <path
     style="fill:#808080;stroke-width:0.0039124"
     d="m 2.9628906,12.984274 c -0.00322,-6.31e-4 -0.019043,-0.0033 -0.035156,-0.0059 -0.1261441,-0.02029 -0.2621581,-0.110948 -0.339166,-0.226076 -0.029596,-0.04425 -0.037825,-0.06665 -0.043186,-0.117572 -0.013817,-0.131245 -0.018889,-0.662812 -0.022446,-2.352539 l -0.00271,-1.2880864 h 0.4830519 0.483052 v 1.8027174 1.802718 l -0.033343,0.06717 c -0.044099,0.08884 -0.068862,0.125376 -0.1187726,0.175216 -0.078857,0.07875 -0.169872,0.124887 -0.2736651,0.138736 -0.037013,0.0049 -0.082236,0.0066 -0.097656,0.0036 z"
     id="path888" />
  <path
     style="fill:#808080;stroke-width:0.0039124"
     d="M 2.9355469,12.98064 C 2.787234,12.95615 2.6304772,12.843008 2.5645839,12.712891 2.5467474,12.67767 2.5428482,12.644588 2.5374191,12.482422 2.5282662,12.20903 2.5235853,11.385671 2.5221678,9.7998047 L 2.5214477,8.9941406 h 0.4824402 0.4824402 v 1.8027174 1.802718 l -0.033343,0.06717 c -0.040444,0.08148 -0.066671,0.12167 -0.1076572,0.164968 -0.070503,0.07448 -0.1592621,0.124844 -0.2548067,0.14458 -0.043285,0.0089 -0.114961,0.01095 -0.1549738,0.0043 z"
     id="path890" />
  <path
     style="fill:#808080;stroke-width:0.0039124"
     d="M 2.9333483,12.980518 C 2.7832156,12.953949 2.6299209,12.842179 2.5634005,12.71078 2.5461515,12.67671 2.5434705,12.6481 2.5330395,12.386719 2.5280995,12.262848 2.5231695,11.111553 2.5221115,9.8349609 L 2.521417,8.9941406 h 0.4824555 0.4824556 v 1.8025554 1.802556 l -0.031046,0.06366 c -0.038305,0.07854 -0.068824,0.125361 -0.1102088,0.169081 -0.070946,0.07495 -0.158668,0.124505 -0.2559738,0.144604 -0.04245,0.0088 -0.1176714,0.01066 -0.1557511,0.0039 z"
     id="path892" />
  <path
     style="fill:#808080;stroke-width:0.0039124"
     d="m 2.5354714,12.669328 c -0.00575,-0.01553 -0.014275,-0.04064 -0.018935,-0.05581 l -0.00847,-0.02758 -0.00208,-1.541016 -0.00208,-1.5410157 -0.00196,1.4999997 -0.00196,1.5 -9.69e-4,-1.755169 c -9.219e-4,-1.669784 -6.365e-4,-1.7551053 0.00587,-1.7538555 0.00631,0.00121 0.00699,0.011755 0.00884,0.1360286 0.0011,0.074093 0.00241,0.4985821 0.00291,0.9433089 5.005e-4,0.444726 0.00179,0.873633 0.00286,0.953125 0.00107,0.07949 0.00287,0.381836 0.004,0.671875 0.00254,0.654925 0.0079,0.894846 0.021731,0.972085 0.00225,0.01258 0.00333,0.02363 0.0024,0.02456 -9.308e-4,9.31e-4 -0.0064,-0.01101 -0.012155,-0.02653 z"
     id="path894" />
  <path
     style="fill:#808080;stroke-width:0.0039124"
     d="m 2.9333483,12.980518 c -0.099444,-0.0176 -0.1968719,-0.06911 -0.2764755,-0.146179 -0.055356,-0.05359 -0.099694,-0.12162 -0.107548,-0.165012 -0.010915,-0.0603 -0.018146,-0.306176 -0.019628,-0.667374 -4.891e-4,-0.119238 -0.00157,-0.22207 -0.00241,-0.228515 -8.378e-4,-0.0064 -0.00277,-0.634424 -0.0043,-1.395508 L 2.5202068,8.9941406 H 3.0032694 3.486332 v 1.8025554 1.802556 l -0.031046,0.06366 c -0.038305,0.07854 -0.068824,0.125361 -0.1102088,0.169081 -0.070946,0.07495 -0.158668,0.124505 -0.2559738,0.144604 -0.04245,0.0088 -0.1176714,0.01066 -0.1557511,0.0039 z"
     id="path896" />
  <path
     style="fill:#808080;stroke-width:0.0039124"
     d="m 2.9414063,12.981998 c -0.1462175,-0.02107 -0.302596,-0.131097 -0.3730359,-0.262465 -0.00843,-0.01571 -0.016896,-0.03847 -0.019193,-0.05156 -0.00708,-0.04038 -0.011802,-0.138035 -0.015965,-0.330303 -0.00521,-0.240393 -0.011533,-1.654821 -0.011643,-2.6023144 l -8.54e-5,-0.741211 h 0.4824219 0.4824218 v 1.8026534 1.802652 l -0.0315,0.06465 c -0.037976,0.07794 -0.067871,0.123641 -0.1099993,0.168147 -0.1068397,0.112869 -0.2613523,0.170225 -0.4034223,0.149752 z"
     id="path898" />
  <path
     style="fill:#808080;stroke-width:0.0039124"
     d=""
     id="path900" />
  <path
     style="fill:#808080;stroke-width:0.0039124"
     d="m 3.078125,12.984488 c 0.085065,-0.01527 0.1738099,-0.05792 0.2360263,-0.113433 0.051951,-0.04636 0.090171,-0.09682 0.1290296,-0.170357 0.025539,-0.04833 0.031067,-0.05154 0.011031,-0.0064 -0.029733,0.06699 -0.059998,0.110164 -0.1131939,0.16148 -0.019982,0.01928 -0.04893,0.04339 -0.064329,0.05359 -0.061713,0.04086 -0.1513426,0.07552 -0.2044231,0.07904 l -0.025391,0.0017 z"
     id="path902" />
  <path
     style="fill:#808080;stroke-width:0.0039124"
     d=""
     id="path904" />
  <path
     style="fill:#808080;stroke-width:0.0039124"
     d="m 3.078125,12.984324 c 0.10215,-0.01918 0.1864983,-0.06399 0.2599524,-0.138077 0.044236,-0.04462 0.073599,-0.08557 0.1073698,-0.149745 0.01165,-0.02214 0.02122,-0.03827 0.021266,-0.03585 2.28e-4,0.01198 -0.036736,0.08658 -0.059534,0.120149 -0.022696,0.03342 -0.077208,0.08917 -0.1140521,0.116646 -0.060435,0.04506 -0.1622204,0.087 -0.2208611,0.09101 l -0.025391,0.0017 z"
     id="path906" />
</svg>
