<?xml version="1.0" encoding="UTF-8" standalone="no"?>
<svg
   width="16"
   height="16"
   fill="currentColor"
   class="bi bi-star"
   viewBox="0 0 16 16"
   version="1.1"
   id="svg2041"
   sodipodi:docname="star.svg"
   inkscape:version="1.2.2 (732a01da63, 2022-12-09)"
   xmlns:inkscape="http://www.inkscape.org/namespaces/inkscape"
   xmlns:sodipodi="http://sodipodi.sourceforge.net/DTD/sodipodi-0.dtd"
   xmlns="http://www.w3.org/2000/svg"
   xmlns:svg="http://www.w3.org/2000/svg">
  <defs
     id="defs2045" />
  <sodipodi:namedview
     id="namedview2043"
     pagecolor="#ffffff"
     bordercolor="#999999"
     borderopacity="1"
     inkscape:showpageshadow="0"
     inkscape:pageopacity="0"
     inkscape:pagecheckerboard="0"
     inkscape:deskcolor="#d1d1d1"
     showgrid="false"
     inkscape:zoom="52.3125"
     inkscape:cx="8.0095579"
     inkscape:cy="8.0095579"
     inkscape:window-width="1920"
     inkscape:window-height="1017"
     inkscape:window-x="-8"
     inkscape:window-y="-8"
     inkscape:window-maximized="1"
     inkscape:current-layer="svg2041" />
  <path
     d="M2.866 14.85c-.078.444.36.791.746.593l4.39-2.256 4.389 2.256c.386.198.824-.149.746-.592l-.83-4.73 3.522-3.356c.33-.314.16-.888-.282-.95l-4.898-.696L8.465.792a.513.513 0 0 0-.927 0L5.354 5.12l-4.898.696c-.441.062-.612.636-.283.95l3.523 3.356-.83 4.73zm4.905-2.767-3.686 1.894.694-3.957a.56.56 0 0 0-.163-.505L1.71 6.745l4.052-.576a.53.53 0 0 0 .393-.288L8 2.223l1.847 3.658a.53.53 0 0 0 .393.288l4.052.575-2.906 2.77a.56.56 0 0 0-.163.506l.694 3.957-3.686-1.894a.5.5 0 0 0-.461 0z"
     id="path2039" />
  <path
     style="fill:#ffcc00;stroke-width:0.019146"
     d="m 3.2241847,15.456962 c -0.201437,-0.06957 -0.3489988,-0.278465 -0.3498854,-0.495319 -2.447e-4,-0.05973 0.1851966,-1.163506 0.4120908,-2.452841 0.2268939,-1.289334 0.4125346,-2.357128 0.4125346,-2.372874 0,-0.01575 -0.7763441,-0.7682054 -1.725209,-1.6721316 C 1.0248507,7.55987 0.20815046,6.7769579 0.15882632,6.7239914 -0.1037738,6.4420003 0.01653954,5.9580662 0.37596276,5.8506076 0.43202672,5.8338458 1.5743517,5.6650437 2.9144627,5.4754917 4.2545736,5.2859397 5.3554521,5.1264277 5.3608591,5.1210206 5.3662662,5.1156135 5.8666766,4.1291454 6.4728822,2.9288694 7.079088,1.7285934 7.6015983,0.71495633 7.6340165,0.67634254 7.8028024,0.47529956 8.1226953,0.45791336 8.3279945,0.63862481 8.4061318,0.707404 8.5120505,0.90908385 9.5263474,2.9204079 l 1.1126396,2.2063354 2.490355,0.3542681 c 2.00338,0.2849929 2.50559,0.3620401 2.568262,0.3940131 0.109426,0.055825 0.229895,0.1995326 0.264253,0.3152274 0.06511,0.2192416 0.01219,0.4116962 -0.15973,0.5809319 -0.05939,0.058462 -0.871422,0.8335944 -1.804516,1.7225162 -0.933095,0.8889219 -1.696536,1.624774 -1.696536,1.635226 0,0.01045 0.176034,1.021742 0.391187,2.24731 0.215153,1.225567 0.404927,2.308274 0.42172,2.406015 0.02438,0.141884 0.02626,0.198312 0.0093,0.279899 -0.05631,0.271235 -0.352024,0.477201 -0.596688,0.415594 -0.04596,-0.01157 -1.079946,-0.533208 -2.297748,-1.15919 -1.2178008,-0.625981 -2.219689,-1.138148 -2.226418,-1.138148 -0.00673,0 -1.0014305,0.50872 -2.2104476,1.130489 -1.2090172,0.621769 -2.2361394,1.142199 -2.2824937,1.156511 -0.1101926,0.03402 -0.1620588,0.03212 -0.285322,-0.01044 z m 2.7531597,-2.438796 c 1.398206,-0.718048 1.9023109,-0.968251 1.9692294,-0.977391 0.060548,-0.0083 0.1198988,-0.0024 0.1816009,0.01805 0.050412,0.01668 0.9209023,0.456655 1.9344233,0.977716 1.013521,0.521061 1.8472,0.942949 1.852621,0.937528 0.0054,-0.0054 -0.147424,-0.906452 -0.339656,-2.002292 C 11.192242,9.7866082 11.19673,9.8237362 11.295536,9.6551352 11.3281,9.5995701 11.86908,9.0706988 12.826382,8.158556 14.231461,6.8197586 14.304225,6.7471709 14.254987,6.7334159 14.226453,6.7254446 13.317085,6.5944015 12.23417,6.442209 11.151254,6.2900165 10.22118,6.1523624 10.167339,6.136311 10.109948,6.1192017 10.033442,6.0754361 9.9824294,6.0305332 9.902824,5.9604618 9.815123,5.7944843 8.9524863,4.0813284 8.4338757,3.0513921 8.0052569,2.2087386 8,2.2087652 7.9947431,2.208792 7.5732378,3.0404636 7.0633214,4.0569246 6.2285972,5.7208539 6.1265227,5.9149265 6.0390893,6.004281 5.9659902,6.0789863 5.9163601,6.1112067 5.8383725,6.1345881 5.7813895,6.1516722 4.8487455,6.2904684 3.7658303,6.4430239 2.6829152,6.5955796 1.7769277,6.7247545 1.7525249,6.7300796 c -0.024403,0.00532 -0.041607,0.016801 -0.038232,0.025502 0.00338,0.0087 0.6685025,0.6470938 1.4780604,1.4186499 1.6256786,1.5493668 1.577061,1.4961695 1.577061,1.7256201 0,0.063943 -0.1531275,0.9884004 -0.344086,2.0773084 -0.1892474,1.079149 -0.3440861,1.971995 -0.3440861,1.984101 0,0.01211 0.00378,0.02201 0.00841,0.02201 0.00462,0 0.8540865,-0.434299 1.8876941,-0.965108 z"
     id="path2527" />
</svg>
