<?xml version="1.0" encoding="UTF-8" standalone="no"?>
<svg
   width="16"
   height="16"
   fill="currentColor"
   class="bi bi-star-fill"
   viewBox="0 0 16 16"
   version="1.1"
   id="svg1270"
   sodipodi:docname="star-fill.svg"
   inkscape:version="1.2.2 (732a01da63, 2022-12-09)"
   xmlns:inkscape="http://www.inkscape.org/namespaces/inkscape"
   xmlns:sodipodi="http://sodipodi.sourceforge.net/DTD/sodipodi-0.dtd"
   xmlns="http://www.w3.org/2000/svg"
   xmlns:svg="http://www.w3.org/2000/svg">
  <defs
     id="defs1274" />
  <sodipodi:namedview
     id="namedview1272"
     pagecolor="#ffffff"
     bordercolor="#999999"
     borderopacity="1"
     inkscape:showpageshadow="0"
     inkscape:pageopacity="0"
     inkscape:pagecheckerboard="0"
     inkscape:deskcolor="#d1d1d1"
     showgrid="false"
     inkscape:zoom="52.3125"
     inkscape:cx="8.0095579"
     inkscape:cy="8.0095579"
     inkscape:window-width="1920"
     inkscape:window-height="1017"
     inkscape:window-x="-8"
     inkscape:window-y="-8"
     inkscape:window-maximized="1"
     inkscape:current-layer="svg1270" />
  <path
     d="M3.612 15.443c-.386.198-.824-.149-.746-.592l.83-4.73L.173 6.765c-.329-.314-.158-.888.283-.95l4.898-.696L7.538.792c.197-.39.73-.39.927 0l2.184 4.327 4.898.696c.441.062.612.636.282.95l-3.522 3.356.83 4.73c.078.443-.36.79-.746.592L8 13.187l-4.389 2.256z"
     id="path1268" />
  <path
     style="fill:#ffcc00;stroke-width:0.019146"
     d="m 3.2241847,15.456962 c -0.2013657,-0.06954 -0.348909,-0.27836 -0.3499751,-0.495319 -2.944e-4,-0.05973 0.1851473,-1.163639 0.4120908,-2.453135 0.2269433,-1.289496 0.4126243,-2.357466 0.4126243,-2.373268 0,-0.0158 -0.7818555,-0.7734244 -1.7374568,-1.6836074 C 1.0058665,7.5414496 0.18849531,6.7564064 0.14508738,6.7070924 -0.07896534,6.4525551 7.716129e-4,6.0308242 0.30232986,5.8754324 0.37839587,5.8362361 0.51596924,5.8156033 3.8608296,5.341742 4.6805821,5.225609 5.3555122,5.1263675 5.360674,5.1212056 5.3658361,5.1160436 5.8660817,4.1297608 6.4723311,2.9294658 7.0785805,1.7291708 7.6001971,0.71664562 7.6314791,0.67940987 7.8019915,0.47644488 8.1224317,0.45768123 8.3279945,0.63862481 8.4061318,0.707404 8.5120505,0.90908385 9.5263474,2.9204079 l 1.1126396,2.2063354 2.490355,0.3542681 c 2.00338,0.2849929 2.50559,0.3620401 2.568262,0.3940131 0.109426,0.055825 0.229895,0.1995326 0.264253,0.3152274 0.06511,0.2192416 0.01219,0.4116962 -0.15973,0.5809319 -0.05939,0.058462 -0.871422,0.8335944 -1.804516,1.7225162 -0.933095,0.8889219 -1.696536,1.624774 -1.696536,1.635226 0,0.01045 0.176034,1.021742 0.391187,2.24731 0.215153,1.225567 0.404927,2.308274 0.42172,2.406015 0.02438,0.141884 0.02626,0.198312 0.0093,0.279899 -0.0563,0.271181 -0.352026,0.4772 -0.596595,0.415617 -0.04591,-0.01156 -1.080278,-0.533195 -2.298597,-1.159189 -1.2183188,-0.625995 -2.2206766,-1.138172 -2.2274612,-1.138172 -0.00678,0 -1.0072057,0.511327 -2.2231578,1.136282 -1.2159522,0.624956 -2.2434301,1.145338 -2.2832845,1.156405 -0.1000757,0.02779 -0.1517866,0.0247 -0.2700218,-0.01613 z"
     id="path1825" />
</svg>
