<?xml version="1.0" encoding="UTF-8" standalone="no"?>
<svg
   width="16"
   height="16"
   fill="currentColor"
   class="bi bi-trash3-fill"
   viewBox="0 0 16 16"
   version="1.1"
   id="svg4"
   sodipodi:docname="trash3-fill.svg"
   inkscape:version="1.2.2 (732a01da63, 2022-12-09)"
   xmlns:inkscape="http://www.inkscape.org/namespaces/inkscape"
   xmlns:sodipodi="http://sodipodi.sourceforge.net/DTD/sodipodi-0.dtd"
   xmlns="http://www.w3.org/2000/svg"
   xmlns:svg="http://www.w3.org/2000/svg">
  <defs
     id="defs8" />
  <sodipodi:namedview
     id="namedview6"
     pagecolor="#ffffff"
     bordercolor="#999999"
     borderopacity="1"
     inkscape:showpageshadow="0"
     inkscape:pageopacity="0"
     inkscape:pagecheckerboard="0"
     inkscape:deskcolor="#d1d1d1"
     showgrid="false"
     inkscape:zoom="52.3125"
     inkscape:cx="8.0095579"
     inkscape:cy="8.0095579"
     inkscape:window-width="1920"
     inkscape:window-height="1017"
     inkscape:window-x="1912"
     inkscape:window-y="-8"
     inkscape:window-maximized="1"
     inkscape:current-layer="svg4" />
  <path
     d="M11 1.5v1h3.5a.5.5 0 0 1 0 1h-.538l-.853 10.66A2 2 0 0 1 11.115 16h-6.23a2 2 0 0 1-1.994-1.84L2.038 3.5H1.5a.5.5 0 0 1 0-1H5v-1A1.5 1.5 0 0 1 6.5 0h3A1.5 1.5 0 0 1 11 1.5m-5 0v1h4v-1a.5.5 0 0 0-.5-.5h-3a.5.5 0 0 0-.5.5M4.5 5.029l.5 8.5a.5.5 0 1 0 .998-.06l-.5-8.5a.5.5 0 1 0-.998.06m6.53-.528a.5.5 0 0 0-.528.47l-.5 8.5a.5.5 0 0 0 .998.058l.5-8.5a.5.5 0 0 0-.47-.528M8 4.5a.5.5 0 0 0-.5.5v8.5a.5.5 0 0 0 1 0V5a.5.5 0 0 0-.5-.5"
     id="path2" />
  <path
     style="fill:#ff0000;stroke-width:0.019146"
     d="M 4.5636292,15.962 C 4.3632323,15.92541 4.1693914,15.862989 4.0151602,15.785379 3.468308,15.510202 3.0869167,15.02902 2.9428477,14.432497 2.9202699,14.339013 2.0549582,3.727395 2.0549582,3.5440004 v -0.052314 l -0.3504366,-0.0063 -0.3504365,-0.0063 -0.093348,-0.057757 C 0.90930647,3.203893 0.93632678,2.7224124 1.3094385,2.553518 1.3940164,2.5152327 1.425856,2.5145722 3.2066906,2.5141593 L 5.0179211,2.5137395 V 1.9050888 c 0,-0.5483707 0.00383,-0.6236258 0.038669,-0.7598565 C 5.2056637,0.56232208 5.6882118,0.11906933 6.2723024,0.02851932 6.3601474,0.01490096 6.962453,0.00995413 8.0860215,0.01362295 l 1.6821983,0.0054929 0.181601,0.06310342 C 10.46183,0.26013438 10.81319,0.63604443 10.94341,1.1452323 c 0.03484,0.1362307 0.03867,0.2114858 0.03867,0.7598565 v 0.6086507 l 1.81123,4.206e-4 c 1.780835,4.129e-4 1.812675,0.00107 1.897253,0.039359 0.373111,0.1688944 0.400132,0.6503749 0.0487,0.8678166 l -0.09335,0.057757 -0.346309,0.00624 -0.346309,0.00624 -0.42597,5.336651 c -0.234283,2.9351583 -0.437993,5.4097693 -0.452687,5.4991363 -0.07001,0.425726 -0.276288,0.807772 -0.603809,1.118279 -0.245473,0.232722 -0.525696,0.388634 -0.867486,0.482659 l -0.191159,0.05259 -3.3548383,0.0032 C 5.3418915,15.986741 4.6760405,15.982525 4.5636292,15.962 Z M 5.6302895,14.002522 C 5.8203154,13.94973 5.97748,13.772115 6.0010669,13.583499 6.0070973,13.535275 5.8972731,11.55466 5.7570131,9.1821331 L 5.5019947,4.8684481 5.4499018,4.7619737 C 5.3619915,4.5822916 5.1961392,4.4817367 4.990621,4.4835152 4.7539202,4.4855637 4.5530627,4.6472249 4.5011309,4.877484 c -0.021165,0.093842 0.4875561,8.705748 0.5203016,8.807949 0.013202,0.0412 0.062975,0.117146 0.110605,0.168758 0.1287533,0.139516 0.3224334,0.197175 0.498252,0.148331 z m 2.5896824,-0.04508 c 0.1048929,-0.04885 0.2013198,-0.146664 0.2531871,-0.256839 0.031502,-0.06691 0.033412,-0.321278 0.033412,-4.4485122 0,-4.8826822 0.013055,-4.4322906 -0.1331689,-4.5941435 C 8.2719276,4.5456271 8.157774,4.4961697 8,4.4961697 c -0.157774,0 -0.2719276,0.049457 -0.3734022,0.1617776 -0.1462243,0.1618529 -0.1331689,-0.2885387 -0.1331689,4.5941435 0,4.1272342 0.00191,4.3815972 0.033412,4.4485122 0.089985,0.191144 0.2630849,0.301413 0.473159,0.301413 0.090036,0 0.1506126,-0.01227 0.2199719,-0.04457 z m 2.4860241,-0.0021 c 0.09347,-0.03906 0.210197,-0.154051 0.25663,-0.252833 0.03955,-0.08414 0.05363,-0.292667 0.288782,-4.2766196 0.135962,-2.3034915 0.248559,-4.2698869 0.250216,-4.3697675 0.0035,-0.2082884 -0.01886,-0.2784791 -0.126372,-0.3974809 -0.199001,-0.2202701 -0.548807,-0.2206092 -0.747459,-7.245e-4 -0.03849,0.042602 -0.08319,0.1087658 -0.09933,0.1470312 -0.0438,0.1038278 -0.5493278,8.6695733 -0.519365,8.8001313 0.0261,0.113728 0.110063,0.240274 0.199157,0.300165 0.140161,0.09422 0.343223,0.114658 0.497737,0.0501 z M 10.007168,1.962784 c 0,-0.6039484 -0.00827,-0.661555 -0.1132105,-0.7888701 C 9.8638194,1.1373512 9.7930917,1.081919 9.7367847,1.0507312 L 9.6344086,0.99402628 H 8 6.3655914 L 6.2632153,1.0507312 C 6.2069083,1.081919 6.1361806,1.1373512 6.1060425,1.1739139 6.0010986,1.301229 5.9928315,1.3588356 5.9928315,1.962784 V 2.5137395 H 8 10.007168 Z"
     id="path860" />
</svg>
