<?xml version="1.0" encoding="UTF-8" standalone="no"?>
<svg
   width="16"
   height="16"
   fill="currentColor"
   class="bi bi-x-circle"
   viewBox="0 0 16 16"
   version="1.1"
   id="svg6"
   sodipodi:docname="x-circle.svg"
   inkscape:version="1.2.2 (732a01da63, 2022-12-09)"
   xmlns:inkscape="http://www.inkscape.org/namespaces/inkscape"
   xmlns:sodipodi="http://sodipodi.sourceforge.net/DTD/sodipodi-0.dtd"
   xmlns="http://www.w3.org/2000/svg"
   xmlns:svg="http://www.w3.org/2000/svg">
  <defs
     id="defs10" />
  <sodipodi:namedview
     id="namedview8"
     pagecolor="#ffffff"
     bordercolor="#999999"
     borderopacity="1"
     inkscape:showpageshadow="0"
     inkscape:pageopacity="0"
     inkscape:pagecheckerboard="0"
     inkscape:deskcolor="#d1d1d1"
     showgrid="false"
     inkscape:zoom="22.627417"
     inkscape:cx="5.8336309"
     inkscape:cy="12.241786"
     inkscape:window-width="1920"
     inkscape:window-height="1017"
     inkscape:window-x="-8"
     inkscape:window-y="-8"
     inkscape:window-maximized="1"
     inkscape:current-layer="svg6" />
  <path
     d="M8 15A7 7 0 1 1 8 1a7 7 0 0 1 0 14m0 1A8 8 0 1 0 8 0a8 8 0 0 0 0 16"
     id="path2" />
  <path
     d="M4.646 4.646a.5.5 0 0 1 .708 0L8 7.293l2.646-2.647a.5.5 0 0 1 .708.708L8.707 8l2.647 2.646a.5.5 0 0 1-.708.708L8 8.707l-2.646 2.647a.5.5 0 0 1-.708-.708L7.293 8 4.646 5.354a.5.5 0 0 1 0-.708"
     id="path4" />
  <path
     style="fill:#666666;stroke-width:1.0015748"
     d="M 7.5316607,15.978822 C 6.3891412,15.889809 5.3893551,15.622571 4.46284,15.15854 3.5963848,14.72459 2.9443114,14.247534 2.265233,13.550774 1.699841,12.970662 1.2727675,12.375127 0.89479903,11.639768 0.43532817,10.745841 0.16079304,9.8173071 0.04472228,8.7646356 0.0130889,8.4777455 0.0130889,7.5222545 0.04472228,7.2353644 0.20176111,5.8111446 0.68098022,4.5223925 1.4699154,3.4026284 1.9145699,2.7715141 2.5304826,2.1303826 3.1445639,1.6594103 4.1686264,0.87400122 5.3957622,0.33994529 6.6693087,0.12542285 7.1816061,0.03912894 7.4280726,0.01951257 8,0.01951257 c 0.5719274,0 0.8183939,0.01961637 1.3306913,0.10591028 1.4375317,0.24214483 2.7993667,0.88480145 3.9017157,1.84123755 0.289101,0.250835 0.745579,0.7233487 0.971723,1.0058605 0.378376,0.4726889 0.629703,0.8597498 0.901071,1.3877114 0.449707,0.8749318 0.72113,1.7772368 0.84054,2.7942482 0.04638,0.3950503 0.04611,1.2980366 -5.16e-4,1.6961766 -0.212057,1.8108109 -0.974481,3.4319599 -2.210458,4.7001169 -0.438156,0.449565 -0.826903,0.775115 -1.309438,1.096573 -1.060196,0.706284 -2.27144,1.146648 -3.5651139,1.296143 -0.2445213,0.02826 -1.1203948,0.05155 -1.3285544,0.03533 z m 1.2294956,-1.012061 c 2.0575687,-0.216745 3.9273227,-1.356012 5.0835957,-3.097504 0.61662,-0.928708 0.991344,-1.965853 1.125164,-3.1141793 0.04238,-0.3636539 0.04238,-1.1465015 0,-1.5101554 C 14.835556,6.091956 14.463864,5.0632036 13.844752,4.1307433 12.967152,2.8089682 11.69648,1.8387438 10.188769,1.3392098 9.4816711,1.1049344 8.7952136,0.99788594 8,0.99788594 6.8640965,0.99788594 5.8818259,1.2265647 4.8841099,1.7232847 4.1515517,2.0879941 3.6363261,2.459733 3.0480294,3.0480294 2.457993,3.638066 2.0890726,4.1493851 1.7232847,4.8841099 1.3454171,5.6430979 1.1291639,6.3809329 1.0303152,7.2484551 c -0.0390139,0.342396 -0.0442251,1.098145 -0.0098,1.4206011 0.127113,1.1905003 0.5015908,2.2466158 1.1347288,3.2002008 0.8831204,1.33009 2.1625194,2.302181 3.684656,2.79961 0.5790157,0.189221 1.0755795,0.278617 1.8637993,0.335537 0.1716561,0.0124 0.7920948,-0.0097 1.0574526,-0.03764 z"
     id="path862" />
  <path
     style="fill:#666666;stroke-width:0.019146"
     d="M 4.8978256,11.477753 C 4.788547,11.451399 4.7274459,11.41403 4.6419197,11.321245 4.5510537,11.222667 4.5133484,11.124849 4.5146014,10.990946 4.516544,10.783344 4.4882333,10.815651 5.9502795,9.352576 L 7.3016507,8.0002535 5.9424214,6.6381196 C 4.7403149,5.4334442 4.5790397,5.264937 4.5472711,5.1804062 4.4774398,4.9945976 4.5131398,4.8169544 4.6496385,4.6710263 4.7912487,4.5196335 4.9858103,4.4742346 5.1804062,4.5471772 5.2650136,4.5788916 5.432337,4.7390475 6.6379917,5.9423257 L 7.9999979,7.301647 9.3524481,5.950376 C 10.815451,4.488649 10.78362,4.5165414 10.990946,4.5146014 c 0.134161,-0.00126 0.23164,0.036442 0.331792,0.1283098 0.108304,0.099346 0.162564,0.2181365 0.162564,0.3558941 0,0.2173166 0.03729,0.1744959 -1.435677,1.6487455 L 8.6983551,8 10.049625,9.3524492 c 1.472964,1.4742498 1.435677,1.4314288 1.435677,1.6487458 0,0.137757 -0.05426,0.256547 -0.162564,0.355894 -0.100152,0.09187 -0.197631,0.129565 -0.331792,0.12831 -0.207326,-0.0019 -0.17549,0.02596 -1.6385616,-1.435839 L 7.9998704,8.6982255 6.647486,10.049658 C 5.2293218,11.466825 5.2363195,11.46055 5.046595,11.48524 5.00454,11.49074 4.9375938,11.48734 4.8978256,11.47774 Z"
     id="path864" />
  <path
     style="fill:#666666;stroke-width:0.0039124"
     d=""
     id="path866" />
  <path
     style="fill:#666666;stroke-width:0.0039124"
     d=""
     id="path868" />
  <path
     style="fill:#666666;stroke-width:0.0039124"
     d="m 15.794922,9.7469441 c 0,-0.00311 0.0045,-0.025671 0.01007,-0.05013 0.05514,-0.2434602 0.113319,-0.591186 0.142067,-0.8491578 0.02527,-0.2268016 0.03801,-0.5886704 0.03402,-0.9667969 -0.004,-0.3792864 -0.01481,-0.5787824 -0.0439,-0.8105469 C 15.82726,6.194756 15.594918,5.3831646 15.236294,4.6220703 c -0.03082,-0.065409 -0.03687,-0.081055 -0.03133,-0.081055 0.0077,0 0.07381,0.1402035 0.147471,0.3125 0.533775,1.2485947 0.741286,2.6059083 0.604368,3.953125 -0.03167,0.3116278 -0.07815,0.6005254 -0.149837,0.9313485 -0.0026,0.011858 -0.01204,0.018902 -0.01204,0.00896 z"
     id="path870" />
  <path
     style="fill:#666666;stroke-width:0.0039124"
     d=""
     id="path872" />
  <path
     style="fill:#666666;stroke-width:0.0039124"
     d=""
     id="path874" />
  <path
     style="fill:#666666;stroke-width:1.0015748"
     d="M 14.799571,9.7060547 C 14.865684,9.4445961 14.923561,9.1342168 14.960732,8.8417969 14.991874,8.596807 15.001863,8.3923781 15.001863,8 c 0,-0.3840091 -0.0099,-0.5937148 -0.03927,-0.828125 -0.112407,-0.898451 -0.374298,-1.7297671 -0.784004,-2.4886587 -0.03027,-0.056067 -0.06038,-0.1110047 -0.06691,-0.1220839 l -0.01188,-0.020144 0.54717,9.901e-4 0.54717,9.901e-4 0.03318,0.070312 c 0.362007,0.7671254 0.590838,1.5612714 0.704046,2.4433594 0.03503,0.2729132 0.04506,0.4837414 0.04498,0.9453125 -8.5e-5,0.5024317 -0.01187,0.7122492 -0.05871,1.0449219 -0.03139,0.2229738 -0.0671,0.420966 -0.121328,0.6728516 l -0.0069,0.032227 h -0.500698 -0.500697 z"
     id="path876" />
  <path
     style="fill:#666666;stroke-width:0.0039124"
     d="M 14.797611,9.7138734 C 14.845961,9.5234645 14.897529,9.2675242 14.931212,9.0507813 14.986836,8.6928586 15.001883,8.4691379 15.001883,8 c 0,-0.3937004 -0.01058,-0.6039669 -0.04313,-0.8574219 C 14.841154,6.226877 14.564829,5.3754414 14.134407,4.6025255 l -0.03427,-0.061537 0.547294,9.901e-4 0.547295,9.901e-4 0.04459,0.095703 c 0.278577,0.5978811 0.471836,1.1923104 0.600069,1.8457031 0.05338,0.2719748 0.102562,0.6129618 0.11748,0.8144531 0.0266,0.3593039 0.02835,0.9512672 0.004,1.3417969 -0.01803,0.2888039 -0.07742,0.6784598 -0.164479,1.0791016 l -0.007,0.032227 h -0.500709 -0.500709 z"
     id="path886" />
  <path
     style="fill:#666666;stroke-width:0.0039124"
     d="m 14.797611,9.7138734 c 0.0872,-0.3434031 0.1649,-0.8032129 0.186643,-1.1044984 0.01231,-0.1706164 0.01457,-0.2509134 0.01571,-0.5585937 0.0019,-0.5040601 -0.0073,-0.6726541 -0.0549,-1.0078126 C 14.833857,6.259608 14.609017,5.5337558 14.267459,4.8554687 14.21153,4.7444 14.1226,4.5776549 14.104432,4.5497911 l -0.0057,-0.0088 0.548216,9.902e-4 0.548216,9.901e-4 0.04907,0.1060174 c 0.337111,0.7283212 0.55047,1.4512585 0.667623,2.2621466 0.05228,0.3618814 0.06438,0.5651625 0.06447,1.0830079 9e-5,0.5379485 -0.01357,0.7582774 -0.07049,1.1367188 -0.02574,0.1711215 -0.06327,0.3743609 -0.1055,0.571289 l -0.01068,0.049805 h -0.50084 -0.500839 z"
     id="path888" />
</svg>
